# xmcd
#
# Track frame offsets: 
#        150
#        22024
#        37292
#        57839
#        70884
#        86660
#        106467
#        122711
#        137947
#
# Disc length: 2144 seconds
#
# Revision: 1
# Processed by: cddbd v1.5.2PL0 Copyright (c) Steve Scherf et al.
# Submitted via: ExactAudioCopyFreeDBPlugin 1.0
#
DISCID=85085e09
DTITLE=The 13th Floor - Steppin' Out
DYEAR=1977
DGENRE=Funk
TTITLE0=Sweet Thang
TTITLE1=Teffany
TTITLE2=Time And Place
TTITLE3=Hang Loose
TTITLE4=Steppin' Out
TTITLE5=Sweet Lovely Girl
TTITLE6=Get Up
TTITLE7=Leanin'
TTITLE8=Rise
EXTD=
EXTT0=
EXTT1=
EXTT2=
EXTT3=
EXTT4=
EXTT5=
EXTT6=
EXTT7=
EXTT8=
PLAYORDER=
